<svg width="12" height="21" viewBox="0 0 12 21" fill="none" xmlns="http://www.w3.org/2000/svg">
<path d="M3.05 20.5C2.2 20.5 1.47917 20.2083 0.8875 19.625C0.295833 19.0417 0 18.325 0 17.475C0 17.075 0.0791667 16.6917 0.2375 16.325C0.395833 15.9583 0.616667 15.6333 0.9 15.35L3.025 13.275V9.5C3.00833 9.26667 2.90833 9.075 2.725 8.925C2.54167 8.775 2.35 8.63333 2.15 8.5C1.4 7.93333 0.854167 7.35 0.5125 6.75C0.170833 6.15 0 5.48333 0 4.75C0 3.56667 0.4375 2.5625 1.3125 1.7375C2.1875 0.9125 3.25 0.5 4.5 0.5C4.78333 0.5 5.05417 0.5375 5.3125 0.6125C5.57083 0.6875 5.8 0.775 6 0.875C6.21667 0.958333 6.39583 1.04167 6.5375 1.125C6.67917 1.20833 6.825 1.25 6.975 1.25C7.30833 1.25 7.64167 1.13333 7.975 0.9C8.15833 0.8 8.35 0.708333 8.55 0.625C8.75 0.541667 8.975 0.5 9.225 0.5C10.025 0.5 10.6875 0.779167 11.2125 1.3375C11.7375 1.89583 12 2.575 12 3.375C12 3.75833 11.9208 4.14583 11.7625 4.5375C11.6042 4.92917 11.3667 5.28333 11.05 5.6L9.025 7.675V13.25L11.125 15.35C11.4083 15.6333 11.625 15.9583 11.775 16.325C11.925 16.6917 12 17.075 12 17.475C12 18.325 11.7125 19.0417 11.1375 19.625C10.5625 20.2083 9.85 20.5 9 20.5C8.6 20.5 8.21667 20.425 7.85 20.275C7.48333 20.125 7.15833 19.9083 6.875 19.625C6.75833 19.5083 6.62917 19.4208 6.4875 19.3625C6.34583 19.3042 6.19167 19.275 6.025 19.275C5.85833 19.275 5.70417 19.3042 5.5625 19.3625C5.42083 19.4208 5.29167 19.5083 5.175 19.625C4.89167 19.9083 4.56667 20.125 4.2 20.275C3.83333 20.425 3.45 20.5 3.05 20.5ZM3 18.5C3.13333 18.5 3.2625 18.475 3.3875 18.425C3.5125 18.375 3.625 18.3 3.725 18.2C4.025 17.9 4.36667 17.6667 4.75 17.5C5.13333 17.3333 5.54167 17.25 5.975 17.25C6.40833 17.25 6.81667 17.3333 7.2 17.5C7.58333 17.6667 7.925 17.9 8.225 18.2C8.325 18.3 8.4375 18.375 8.5625 18.425C8.6875 18.475 8.81667 18.5 8.95 18.5C9.23333 18.5 9.47917 18.3958 9.6875 18.1875C9.89583 17.9792 10 17.7333 10 17.45C10 17.3167 9.97083 17.1917 9.9125 17.075C9.85417 16.9583 9.775 16.85 9.675 16.75L7.45 14.55C7.31667 14.4167 7.20833 14.2542 7.125 14.0625C7.04167 13.8708 7 13.675 7 13.475V7.7C7 7.41667 7.05 7.15 7.15 6.9C7.25 6.65 7.39167 6.43333 7.575 6.25L9.65 4.175C9.76667 4.05833 9.85417 3.93333 9.9125 3.8C9.97083 3.66667 10 3.525 10 3.375C10 3.125 9.92083 2.9125 9.7625 2.7375C9.60417 2.5625 9.4 2.475 9.15 2.475C9.03333 2.475 8.92083 2.48333 8.8125 2.5C8.70417 2.51667 8.6 2.56667 8.5 2.65L7.575 3.3C7.49167 3.35 7.40417 3.39583 7.3125 3.4375C7.22083 3.47917 7.11667 3.5 7 3.5C6.86667 3.5 6.7375 3.4625 6.6125 3.3875C6.4875 3.3125 6.36667 3.23333 6.25 3.15C6.01667 2.96667 5.75417 2.8125 5.4625 2.6875C5.17083 2.5625 4.85 2.5 4.5 2.5C3.81667 2.5 3.22917 2.72083 2.7375 3.1625C2.24583 3.60417 2 4.13333 2 4.75C2 5.2 2.10417 5.55833 2.3125 5.825C2.52083 6.09167 2.825 6.41667 3.225 6.8C3.30833 6.53333 3.43333 6.20417 3.6 5.8125C3.76667 5.42083 3.98333 5.09167 4.25 4.825C4.36667 4.725 4.4875 4.64583 4.6125 4.5875C4.7375 4.52917 4.86667 4.5 5 4.5C5.28333 4.5 5.52083 4.59167 5.7125 4.775C5.90417 4.95833 6 5.19167 6 5.475C6 5.60833 5.97083 5.74583 5.9125 5.8875C5.85417 6.02917 5.76667 6.15 5.65 6.25L5.325 6.775C5.10833 7.125 5 7.7 5 8.5V13.425C5 13.625 4.95833 13.8208 4.875 14.0125C4.79167 14.2042 4.68333 14.3667 4.55 14.5L2.275 16.75C2.175 16.8333 2.1 16.9375 2.05 17.0625C2 17.1875 1.975 17.3167 1.975 17.45C1.975 17.7333 2.075 17.9792 2.275 18.1875C2.475 18.3958 2.71667 18.5 3 18.5Z" fill="#3A3A3A"/>
</svg>
